{"title":"Never.Let.Me.Go.2010.720p.BRRip.x264.Feel-Free","uid":6072395,"size":2052246926,"categoryP":"video","categoryS":"hd___movies","magnet":"?xt=urn:btih:1ac4607ac51316e24232994f5913c9e4a1140a3b&amp;dn=Never.Let.Me.Go.2010.720p.BRRip.x264.Feel-Free&amp;tr=udp%3A%2F%2Ftracker.openbittorrent.com%3A80&amp;tr=udp%3A%2F%2Fopen.demonii.com%3A1337&amp;tr=udp%3A%2F%2Ftracker.coppersurfer.tk%3A6969&amp;tr=udp%3A%2F%2Fexodus.desync.com%3A6969","seeders":1,"leechers":1,"uploader":"hiest","files":-1,"time":1293683178,"description":"Genre:Drama | Sci-Fi | Thriller \nLanguage:English\nIMDb:http://www.imdb.com/title/tt1334260/\nSource:BluRay.720p.x264.DTS-MySiLU\n\n\nFormat : Matroska\nFile size : 1.91 GiB\nDuration : 1h 43mn\nOverall bit rate : 2 631 Kbps\n\n\nVideo\nFormat settings, CABAC : Yes\nFormat settings, ReFrames : 4 frames\nFormat settings, GOP : M=1, N=32\nCodec ID : V_MPEG4/ISO/AVC\nDuration : 1h 43mn\nBit rate : 2 300 Kbps\nWidth : 1 276 pixels\nHeight : 544 pixels\nDisplay aspect ratio : 2.35:1\nFrame rate mode : Variable\nFrame rate : 23.976 fps\nColor space : YUV\nChroma subsampling : 4:2:0\nBit depth : 8 bits\nScan type : Progressive\nBits/(Pixel*Frame) : 0.138\nStream size : 1.59 GiB (83%)\nWriting library : x264\n\n\nAudio\nID : 2\nFormat : AC-3\nFormat/Info : Audio Coding 3\nMode extension : CM (complete main)\nCodec ID : A_AC3\nDuration : 1h 43mn\nBit rate mode : Constant\nBit rate : 384 Kbps\nChannel(s) : 6 channels\nChannel positions : Front: L C R, Side: L R, LFE\nSampling rate : 48.0 KHz\nBit depth : 16 bits\nVideo delay : -1mn 5s\nStream size : 285 MiB (15%)\nLanguage : English\n\n\nPlot:\nAs children, Ruth, Kathy and Tommy, spend their childhood at a seemingly idyllic English boarding school.\n\n\n\n\n================================== &lt;a href=&quot;\nhttp://thepiratebay.se/user/hiest&quot; rel=&quot;nofollow&quot; target=&quot;_NEW&quot;&gt;\nhttp://thepiratebay.se/user/hiest&lt;/a&gt;\n==================================\n\n\n\n\nScreen Shots:\n &lt;a href=&quot;\nhttp://img585.imageshack.us/img585/1773/vlcsnap2010122922h40m08.png&quot; rel=&quot;nofollow&quot; target=&quot;_NEW&quot;&gt;\nhttp://img585.imageshack.us/img585/1773/vlcsnap2010122922h40m08.png&lt;/a&gt;\n &lt;a href=&quot;\nhttp://img87.imageshack.us/img87/8077/vlcsnap2010122922h39m55.png&quot; rel=&quot;nofollow&quot; target=&quot;_NEW&quot;&gt;\nhttp://img87.imageshack.us/img87/8077/vlcsnap2010122922h39m55.png&lt;/a&gt;\n &lt;a href=&quot;\nhttp://img402.imageshack.us/img402/7563/vlcsnap2010122922h39m33.png&quot; rel=&quot;nofollow&quot; target=&quot;_NEW&quot;&gt;\nhttp://img402.imageshack.us/img402/7563/vlcsnap2010122922h39m33.png&lt;/a&gt;\n &lt;a href=&quot;\nhttp://img232.imageshack.us/img232/7967/vlcsnap2010122922h37m41.png&quot; rel=&quot;nofollow&quot; target=&quot;_NEW&quot;&gt;\nhttp://img232.imageshack.us/img232/7967/vlcsnap2010122922h37m41.png&lt;/a&gt;\n &lt;a href=&quot;\nhttp://img339.imageshack.us/img339/5553/vlcsnap2010122922h37m34.png&quot; rel=&quot;nofollow&quot; target=&quot;_NEW&quot;&gt;\nhttp://img339.imageshack.us/img339/5553/vlcsnap2010122922h37m34.png&lt;/a&gt;","torrent":{"xt":"urn:btih:1ac4607ac51316e24232994f5913c9e4a1140a3b","amp;dn":"Never.Let.Me.Go.2010.720p.BRRip.x264.Feel-Free","amp;tr":["udp%3A%2F%2Ftracker.openbittorrent.com%3A80","udp%3A%2F%2Fopen.demonii.com%3A1337","udp%3A%2F%2Ftracker.coppersurfer.tk%3A6969","udp%3A%2F%2Fexodus.desync.com%3A6969"],"infoHash":"1ac4607ac51316e24232994f5913c9e4a1140a3b","infoHashBuffer":{"type":"Buffer","data":[26,196,96,122,197,19,22,226,66,50,153,79,89,19,201,228,161,20,10,59]},"announce":[],"urlList":[]}}